<svg id="svg" version="1.1" xmlns="http://www.w3.org/2000/svg" xmlns:xlink="http://www.w3.org/1999/xlink" width="400" height="400" viewBox="0, 0, 400,400"><g id="svgg"><path id="path0" d="M273.500 75.810 C 273.569 75.890,275.136 77.043,276.982 78.372 C 340.494 124.084,353.889 212.606,306.805 275.468 C 267.582 327.833,195.971 345.671,136.437 317.903 C 135.097 317.278,134.000 316.815,134.000 316.876 C 134.000 316.996,136.690 318.750,136.875 318.750 C 136.938 318.750,137.606 319.144,138.358 319.625 C 139.110 320.106,139.779 320.500,139.843 320.500 C 139.908 320.500,141.066 321.139,142.418 321.920 C 144.700 323.238,149.191 325.463,152.125 326.728 C 152.813 327.025,153.565 327.373,153.797 327.501 C 162.211 332.161,185.143 337.499,201.000 338.490 C 221.202 339.752,248.144 335.011,263.875 327.424 C 264.288 327.225,264.991 326.908,265.438 326.720 C 265.884 326.532,266.250 326.321,266.250 326.251 C 266.250 326.045,272.816 322.769,273.500 322.634 C 274.028 322.529,275.203 321.892,280.375 318.905 C 282.464 317.699,287.991 313.995,291.375 311.534 C 303.070 303.026,312.533 293.564,321.034 281.875 C 323.535 278.436,328.250 271.411,328.250 271.123 C 328.250 271.029,328.459 270.654,328.714 270.289 C 328.970 269.924,329.458 269.119,329.800 268.500 C 330.143 267.881,331.015 266.325,331.739 265.041 C 332.920 262.948,335.192 258.302,336.344 255.625 C 336.581 255.075,336.878 254.435,337.005 254.203 C 342.755 243.667,348.248 216.822,348.248 199.250 C 348.248 181.691,342.701 154.591,337.001 144.297 C 336.873 144.065,336.524 143.313,336.227 142.625 C 335.018 139.829,332.942 135.590,331.720 133.425 C 331.006 132.160,330.143 130.619,329.800 130.000 C 329.458 129.381,328.970 128.576,328.714 128.211 C 328.459 127.846,328.250 127.470,328.250 127.375 C 328.250 127.074,323.514 120.011,321.042 116.625 C 312.452 104.859,303.094 95.502,291.375 86.962 C 288.059 84.545,280.903 79.750,280.613 79.750 C 280.524 79.750,280.154 79.541,279.789 79.286 C 279.424 79.030,278.563 78.509,277.875 78.126 C 275.067 76.565,273.382 75.672,273.500 75.810 M203.000 87.505 C 203.000 87.739,202.268 87.768,199.875 87.630 C 198.156 87.531,196.750 87.545,196.749 87.662 C 196.749 87.779,202.427 100.869,209.369 116.750 C 269.876 255.187,271.690 259.308,272.525 260.282 L 273.375 261.272 275.425 258.824 C 276.553 257.477,277.879 255.854,278.373 255.218 L 279.270 254.061 276.665 248.093 C 275.233 244.811,273.831 241.619,273.550 241.000 C 273.269 240.381,272.679 239.031,272.240 238.000 C 271.801 236.969,271.185 235.563,270.871 234.875 C 270.558 234.188,269.713 232.275,268.993 230.625 C 268.274 228.975,267.240 226.613,266.696 225.375 C 265.125 221.798,264.275 219.850,260.811 211.875 C 256.211 201.287,254.142 196.549,253.551 195.250 C 253.269 194.631,252.679 193.281,252.240 192.250 C 251.801 191.219,251.185 189.813,250.871 189.125 C 250.558 188.438,249.713 186.525,248.993 184.875 C 248.274 183.225,247.240 180.863,246.696 179.625 C 245.125 176.048,244.275 174.100,240.811 166.125 C 236.156 155.410,234.137 150.788,233.550 149.500 C 232.958 148.203,229.086 139.334,227.820 136.375 C 227.349 135.275,226.810 134.037,226.622 133.625 C 226.434 133.213,223.453 126.406,219.996 118.500 C 216.540 110.594,213.559 103.787,213.373 103.375 C 213.187 102.963,212.474 101.321,211.789 99.726 C 211.104 98.132,210.308 96.390,210.021 95.855 C 209.735 95.320,209.500 94.796,209.500 94.691 C 209.500 94.417,215.942 94.454,216.112 94.729 C 216.190 94.855,217.124 95.030,218.189 95.119 C 229.788 96.084,241.178 99.153,252.736 104.428 C 254.086 105.045,254.173 105.060,253.541 104.574 C 247.148 99.657,231.513 92.710,220.750 90.006 C 214.074 88.328,203.000 86.768,203.000 87.505 M151.485 96.717 C 121.493 110.435,98.999 139.186,92.782 171.750 C 84.214 216.628,105.997 262.201,146.313 283.743 C 149.017 285.187,149.338 285.251,147.563 283.993 C 146.909 283.530,145.756 282.666,145.000 282.074 C 144.244 281.481,143.512 280.913,143.373 280.811 C 139.887 278.246,130.189 268.553,127.182 264.627 C 127.076 264.488,126.245 263.419,125.336 262.250 C 117.198 251.783,110.087 236.673,106.882 223.032 C 103.405 208.237,103.405 190.263,106.882 175.468 C 110.872 158.488,120.031 141.153,131.466 128.936 C 135.463 124.665,140.971 119.463,143.374 117.689 C 143.512 117.587,144.244 117.021,145.000 116.431 C 148.887 113.398,153.280 110.502,157.935 107.904 L 160.495 106.475 157.710 101.050 C 156.178 98.066,154.857 95.548,154.775 95.453 C 154.692 95.358,153.212 95.927,151.485 96.717 M203.428 192.166 C 203.174 192.579,166.945 287.633,166.910 287.976 C 166.891 288.169,167.346 288.619,167.922 288.976 C 168.498 289.333,170.128 290.356,171.544 291.250 C 172.961 292.144,174.234 292.921,174.373 292.976 C 174.511 293.032,174.978 293.345,175.410 293.672 C 176.090 294.188,180.124 295.234,180.365 294.958 C 180.405 294.912,180.968 293.469,181.617 291.750 C 182.266 290.031,183.695 286.262,184.793 283.375 C 186.581 278.676,187.279 276.847,188.753 273.000 C 188.990 272.381,190.276 269.006,191.611 265.500 C 192.946 261.994,194.469 258.000,194.995 256.625 C 195.522 255.250,196.317 253.169,196.762 252.000 C 197.207 250.831,197.766 249.369,198.003 248.750 C 198.240 248.131,199.526 244.756,200.861 241.250 C 205.351 229.459,207.074 224.951,207.899 222.833 C 208.229 221.985,209.342 219.072,210.372 216.359 L 212.244 211.426 207.900 201.692 C 205.511 196.338,203.498 192.052,203.428 192.166 " stroke="none" fill="#0484db" fill-rule="evenodd"></path><path id="path1" d="M189.722 52.147 C 189.388 52.252,190.106 54.287,193.929 64.074 C 196.464 70.565,199.490 78.345,200.654 81.363 C 203.161 87.871,202.477 87.023,205.430 87.284 C 217.751 88.373,229.307 91.637,241.220 97.392 C 246.645 100.013,253.499 104.024,255.123 105.529 C 255.399 105.785,256.430 106.586,257.415 107.310 C 267.856 114.984,279.321 127.616,285.357 138.095 C 298.102 160.227,302.573 183.999,298.623 208.636 C 296.402 222.485,290.582 237.241,282.652 249.125 C 281.551 250.775,280.202 252.800,279.653 253.625 C 278.508 255.347,277.341 256.821,274.958 259.557 L 273.275 261.489 272.410 260.432 C 271.614 259.458,255.811 223.515,210.447 119.500 C 206.040 109.394,201.702 99.494,200.807 97.500 C 199.913 95.506,198.928 93.256,198.618 92.500 C 198.307 91.744,197.100 88.875,195.934 86.125 C 194.769 83.375,191.149 74.770,187.890 67.004 C 184.632 59.237,181.922 52.838,181.867 52.784 C 181.684 52.601,174.910 53.533,170.250 54.382 C 71.902 72.311,23.990 185.716,79.576 269.000 C 110.871 315.889,168.042 339.368,223.197 327.982 C 233.618 325.831,252.472 319.709,252.933 318.326 C 252.978 318.192,249.692 311.173,245.633 302.729 C 241.573 294.284,238.218 287.278,238.179 287.159 C 238.139 287.041,236.097 287.747,233.641 288.729 C 216.310 295.662,192.000 298.057,176.250 294.383 C 164.962 291.750,160.818 290.378,150.625 285.892 C 132.818 278.057,115.281 262.005,104.993 244.125 C 74.485 191.105,95.026 123.970,149.908 97.329 C 152.264 96.186,154.347 95.250,154.537 95.250 C 154.738 95.250,156.419 98.297,158.572 102.563 C 160.603 106.584,165.639 116.287,169.765 124.125 C 175.054 134.173,177.228 138.533,177.136 138.910 C 177.063 139.204,166.766 167.934,154.252 202.755 C 141.739 237.576,131.500 266.205,131.500 266.375 C 131.500 266.679,165.966 288.500,166.446 288.500 C 166.581 288.500,166.741 288.244,166.800 287.931 C 166.957 287.112,203.349 191.752,203.506 191.751 C 203.650 191.750,212.261 211.009,212.254 211.316 C 212.252 211.422,218.736 226.047,226.664 243.816 C 234.592 261.586,241.341 276.830,241.662 277.692 C 242.382 279.627,259.406 314.441,259.887 314.964 C 260.010 315.097,263.412 313.190,267.750 310.556 C 303.522 288.831,327.443 252.605,333.359 211.197 C 335.576 195.680,335.087 178.844,331.982 163.803 C 324.741 128.726,304.958 98.287,276.250 78.053 C 274.394 76.744,272.305 75.243,271.609 74.717 C 259.317 65.432,235.511 56.418,215.622 53.519 C 208.271 52.448,191.585 51.564,189.722 52.147 " stroke="none" fill="#040404" fill-rule="evenodd"></path><path id="path2" d="M181.000 50.566 C 181.000 50.740,181.342 51.583,181.759 52.438 C 182.177 53.294,185.058 60.042,188.163 67.435 C 191.268 74.827,194.432 82.353,195.193 84.160 L 196.577 87.444 199.679 87.623 C 203.434 87.840,203.198 88.094,202.014 85.106 C 199.439 78.609,189.286 52.251,188.997 51.313 L 188.670 50.250 184.835 50.250 C 181.910 50.250,181.000 50.325,181.000 50.566 M209.636 95.063 C 209.898 95.927,209.905 95.930,213.622 96.723 C 217.545 97.559,217.410 97.569,217.024 96.461 C 216.339 94.496,216.347 94.500,212.727 94.500 L 209.466 94.500 209.636 95.063 M240.125 284.382 C 238.475 284.693,237.095 284.959,237.057 284.974 C 236.983 285.003,237.857 286.656,238.260 287.250 C 238.400 287.456,241.780 294.431,245.771 302.750 C 249.761 311.069,253.117 317.966,253.229 318.078 C 253.462 318.312,259.786 315.234,259.687 314.935 C 258.706 311.992,244.266 283.779,243.750 283.796 C 243.406 283.808,241.775 284.072,240.125 284.382 M273.441 322.672 C 273.130 322.753,274.027 323.612,276.607 325.705 C 279.294 327.884,280.134 328.695,279.916 328.902 C 279.641 329.163,267.053 336.000,266.847 336.000 C 266.794 336.000,266.739 334.678,266.725 333.063 C 266.712 331.447,266.615 329.169,266.511 328.000 C 266.388 326.631,266.360 327.655,266.431 330.875 C 266.492 333.625,266.583 336.009,266.633 336.173 C 266.688 336.355,269.471 334.987,273.739 332.681 C 277.598 330.596,280.726 328.816,280.690 328.725 C 280.654 328.635,279.076 327.303,277.183 325.765 C 275.289 324.227,273.805 322.863,273.885 322.734 C 273.964 322.605,273.995 322.513,273.952 322.529 C 273.910 322.545,273.680 322.609,273.441 322.672 M270.188 324.016 C 269.397 324.424,268.750 324.814,268.750 324.883 C 268.750 324.951,269.425 324.666,270.250 324.250 C 271.075 323.834,271.750 323.438,271.750 323.371 C 271.750 323.205,271.796 323.186,270.188 324.016 M322.534 392.398 C 324.547 394.035,326.148 395.451,326.094 395.543 C 326.039 395.636,324.258 396.644,322.135 397.785 C 320.012 398.925,318.319 399.903,318.373 399.957 C 318.494 400.078,326.751 395.675,326.731 395.500 C 326.708 395.293,319.651 389.675,319.248 389.543 C 319.043 389.476,320.522 390.761,322.534 392.398 M316.188 390.766 C 315.397 391.174,314.750 391.564,314.750 391.633 C 314.750 391.701,315.425 391.416,316.250 391.000 C 317.075 390.584,317.750 390.188,317.750 390.121 C 317.750 389.955,317.796 389.936,316.188 390.766 M312.332 394.375 C 312.333 395.337,312.378 395.701,312.432 395.182 C 312.487 394.663,312.486 393.876,312.430 393.432 C 312.375 392.988,312.331 393.413,312.332 394.375 M312.586 398.125 C 312.587 399.225,312.631 399.644,312.683 399.056 C 312.736 398.468,312.735 397.568,312.682 397.056 C 312.628 396.544,312.585 397.025,312.586 398.125 " stroke="none" fill="#f9fafa" fill-rule="evenodd"></path><path id="path3" d="M290.375 89.500 C 290.912 90.050,291.408 90.500,291.476 90.500 C 291.545 90.500,291.162 90.050,290.625 89.500 C 290.088 88.950,289.592 88.500,289.524 88.500 C 289.455 88.500,289.838 88.950,290.375 89.500 M297.375 96.500 C 297.912 97.050,298.408 97.500,298.476 97.500 C 298.545 97.500,298.162 97.050,297.625 96.500 C 297.088 95.950,296.592 95.500,296.524 95.500 C 296.455 95.500,296.838 95.950,297.375 96.500 M124.750 114.375 C 124.143 114.994,123.702 115.500,123.771 115.500 C 123.840 115.500,124.393 114.994,125.000 114.375 C 125.607 113.756,126.048 113.250,125.979 113.250 C 125.910 113.250,125.357 113.756,124.750 114.375 M118.250 120.875 C 117.643 121.494,117.202 122.000,117.271 122.000 C 117.340 122.000,117.893 121.494,118.500 120.875 C 119.107 120.256,119.548 119.750,119.479 119.750 C 119.410 119.750,118.857 120.256,118.250 120.875 M334.563 183.125 C 334.566 183.675,334.617 183.871,334.677 183.560 C 334.737 183.249,334.734 182.799,334.672 182.560 C 334.609 182.321,334.560 182.575,334.563 183.125 M91.068 184.500 C 91.068 185.119,91.117 185.372,91.176 185.063 C 91.236 184.753,91.236 184.247,91.176 183.938 C 91.117 183.628,91.068 183.881,91.068 184.500 M334.854 191.500 C 334.854 194.044,334.891 195.084,334.936 193.813 C 334.982 192.541,334.982 190.459,334.936 189.188 C 334.891 187.916,334.854 188.956,334.854 191.500 M90.840 191.500 C 90.840 192.806,90.882 193.341,90.934 192.688 C 90.985 192.034,90.985 190.966,90.934 190.313 C 90.882 189.659,90.840 190.194,90.840 191.500 M91.068 198.500 C 91.068 199.119,91.117 199.372,91.176 199.063 C 91.236 198.753,91.236 198.247,91.176 197.938 C 91.117 197.628,91.068 197.881,91.068 198.500 M334.563 199.875 C 334.566 200.425,334.617 200.621,334.677 200.310 C 334.737 199.999,334.734 199.549,334.672 199.310 C 334.609 199.071,334.560 199.325,334.563 199.875 M118.375 262.250 C 118.912 262.800,119.408 263.250,119.476 263.250 C 119.545 263.250,119.162 262.800,118.625 262.250 C 118.088 261.700,117.592 261.250,117.524 261.250 C 117.455 261.250,117.838 261.700,118.375 262.250 M124.625 268.500 C 125.162 269.050,125.658 269.500,125.726 269.500 C 125.795 269.500,125.412 269.050,124.875 268.500 C 124.338 267.950,123.842 267.500,123.774 267.500 C 123.705 267.500,124.088 267.950,124.625 268.500 M297.363 286.563 L 296.375 287.625 297.438 286.637 C 298.426 285.718,298.615 285.500,298.426 285.500 C 298.385 285.500,297.907 285.978,297.363 286.563 M290.363 293.563 L 289.375 294.625 290.438 293.637 C 291.426 292.718,291.615 292.500,291.426 292.500 C 291.385 292.500,290.907 292.978,290.363 293.563 M186.690 330.677 C 187.001 330.737,187.451 330.734,187.690 330.672 C 187.929 330.609,187.675 330.560,187.125 330.563 C 186.575 330.566,186.379 330.617,186.690 330.677 M203.440 330.677 C 203.751 330.737,204.201 330.734,204.440 330.672 C 204.679 330.609,204.425 330.560,203.875 330.563 C 203.325 330.566,203.129 330.617,203.440 330.677 M193.188 330.936 C 194.459 330.982,196.541 330.982,197.813 330.936 C 199.084 330.891,198.044 330.854,195.500 330.854 C 192.956 330.854,191.916 330.891,193.188 330.936 " stroke="none" fill="#046bab" fill-rule="evenodd"></path><path id="path4" d="M292.250 91.069 C 292.250 91.107,293.122 91.978,294.188 93.006 L 296.125 94.875 294.256 92.938 C 292.521 91.138,292.250 90.886,292.250 91.069 M122.737 116.438 L 121.875 117.375 122.813 116.513 C 123.328 116.040,123.750 115.618,123.750 115.576 C 123.750 115.385,123.538 115.565,122.737 116.438 M120.237 118.938 L 119.375 119.875 120.313 119.013 C 120.828 118.540,121.250 118.118,121.250 118.076 C 121.250 117.885,121.038 118.065,120.237 118.938 M120.250 264.125 C 120.716 264.606,121.154 265.000,121.223 265.000 C 121.292 265.000,120.966 264.606,120.500 264.125 C 120.034 263.644,119.596 263.250,119.527 263.250 C 119.458 263.250,119.784 263.644,120.250 264.125 M122.750 266.625 C 123.216 267.106,123.654 267.500,123.723 267.500 C 123.792 267.500,123.466 267.106,123.000 266.625 C 122.534 266.144,122.096 265.750,122.027 265.750 C 121.958 265.750,122.284 266.144,122.750 266.625 M294.000 290.125 C 292.976 291.156,292.194 292.000,292.263 292.000 C 292.331 292.000,293.226 291.156,294.250 290.125 C 295.274 289.094,296.056 288.250,295.987 288.250 C 295.919 288.250,295.024 289.094,294.000 290.125 " stroke="none" fill="#0484cc" fill-rule="evenodd"></path></g></svg>